<svg width="128" height="128" viewBox="0 0 128 128" xmlns="http://www.w3.org/2000/svg">
  <!-- Background -->
  <rect x="4" y="4" width="120" height="120" rx="24" fill="#F5F0E8"/>

  <!-- Purple panel -->
  <rect x="16" y="16" width="96" height="52" rx="10" fill="#4B2C82"/>

  <!-- Code symbols -->
  <text x="64" y="48" text-anchor="middle" font-family="system-ui, -apple-system, BlinkMacSystemFont, 'Segoe UI', sans-serif"
        font-size="24" fill="#FFFFFF">
    &lt;/&gt;
  </text>

  <!-- Curved arrow -->
  <path d="M64 68 C 64 80, 80 84, 88 92" fill="none" stroke="#4B2C82" stroke-width="4" stroke-linecap="round" stroke-linejoin="round"/>
  <path d="M88 92 L82 88 L90 86 Z" fill="#4B2C82"/>

  <!-- VS Code-like logo -->
  <g transform="translate(24,78) scale(0.9)">
    <path d="M20 8 L34 0 C35 -0.5 36 0.3 36 1.5 V30.5 C36 31.7 35 32.5 34 32 L20 24 Z" fill="#007ACC"/>
    <path d="M4 10 L18 0 L22 3 L10 14 L22 25 L18 28 L4 18 C3 17.3 3 16.2 4 15.5 Z" fill="#1F9CF0"/>
    <path d="M10 14 L18 8 V24 L10 18 Z" fill="#005A9E"/>
  </g>

  <!-- Label -->
  <text x="64" y="112" text-anchor="middle"
        font-family="system-ui, -apple-system, BlinkMacSystemFont, 'Segoe UI', sans-serif"
        font-size="12" fill="#222222">
    Code to Figma
  </text>
</svg>
